<svg width="24" height="24" viewBox="0 0 24 24" fill="none" xmlns="http://www.w3.org/2000/svg">
<mask id="mask0_1243_154" style="mask-type:alpha" maskUnits="userSpaceOnUse" x="0" y="0" width="24" height="24">
<rect width="24" height="24" fill="#D9D9D9"/>
</mask>
<g mask="url(#mask0_1243_154)">
<path d="M18.5647 19.875C16.7468 19.725 14.9994 19.2452 13.3225 18.4356C11.6455 17.6259 10.1273 16.5397 8.76768 15.1769C7.40806 13.8141 6.33178 12.3 5.53883 10.6346C4.74588 8.96925 4.26607 7.2276 4.0994 5.40966C4.06607 5.05691 4.16845 4.75045 4.40655 4.49029C4.64465 4.23012 4.94227 4.10004 5.2994 4.10004H7.9109C8.21347 4.10004 8.47373 4.19075 8.69168 4.37216C8.90963 4.55358 9.06154 4.79044 9.14743 5.08274L9.6705 7.17501C9.71025 7.3981 9.69775 7.61605 9.633 7.82886C9.56827 8.04168 9.46282 8.21475 9.31665 8.34809L7.00705 10.5962C7.37885 11.2936 7.79104 11.95 8.2436 12.5654C8.69617 13.1808 9.19206 13.7563 9.73128 14.2919C10.2639 14.8243 10.8391 15.3173 11.4571 15.7712C12.075 16.225 12.7423 16.6379 13.459 17.0096L15.8282 14.6962C15.968 14.55 16.1282 14.4526 16.309 14.4039C16.4898 14.3552 16.6917 14.3475 16.9148 14.3808L18.9167 14.8212C19.2192 14.9045 19.4586 15.0584 19.6349 15.2827C19.8112 15.5071 19.8994 15.7738 19.8994 16.0827V18.675C19.8994 19.0321 19.7651 19.3297 19.4966 19.5678C19.2281 19.8059 18.9175 19.9083 18.5647 19.875ZM6.42245 9.32696L8.30708 7.51926C8.33913 7.49361 8.35996 7.45835 8.36958 7.41349C8.37919 7.3686 8.37759 7.32694 8.36478 7.28849L7.92615 5.55386C7.91334 5.50258 7.8909 5.46412 7.85885 5.43849C7.82679 5.41284 7.78511 5.40001 7.73383 5.40001H5.57438C5.53593 5.40001 5.50388 5.41284 5.47823 5.43849C5.45258 5.46412 5.43975 5.49617 5.43975 5.53464C5.49104 6.16797 5.60289 6.7997 5.77533 7.42984C5.94778 8.05997 6.16349 8.69235 6.42245 9.32696ZM14.7724 17.6192C15.3703 17.8823 15.9954 18.082 16.6477 18.2184C17.3001 18.3549 17.9058 18.4551 18.4648 18.5192C18.5032 18.5192 18.5353 18.5064 18.5609 18.4808C18.5866 18.4551 18.5994 18.4231 18.5994 18.3846V16.2308C18.5994 16.1795 18.5866 16.1378 18.5609 16.1058C18.5353 16.0737 18.4968 16.0513 18.4455 16.0385L16.8205 15.6865C16.7821 15.6737 16.7484 15.6721 16.7196 15.6817C16.6907 15.6914 16.6603 15.7122 16.6282 15.7442L14.7724 17.6192Z" fill="#3B3B47"/>
</g>
</svg>
