<svg width="24" height="24" viewBox="0 0 24 24" fill="none" xmlns="http://www.w3.org/2000/svg">
<mask id="mask0_1243_159" style="mask-type:alpha" maskUnits="userSpaceOnUse" x="0" y="0" width="24" height="24">
<rect width="24" height="24" fill="#D9D9D9"/>
</mask>
<g mask="url(#mask0_1243_159)">
<path d="M11.9989 1.7962L20.4224 6.59493C20.6336 6.72524 20.7992 6.88367 20.9191 7.0702C21.0389 7.25674 21.0989 7.475 21.0989 7.725V18.2923C21.0989 18.7424 20.9435 19.1229 20.6326 19.4337C20.3218 19.7446 19.9413 19.9 19.4912 19.9H4.50663C4.05649 19.9 3.67601 19.7446 3.36518 19.4337C3.05434 19.1229 2.89893 18.7424 2.89893 18.2923V7.725C2.89893 7.475 2.95887 7.25674 3.07875 7.0702C3.19862 6.88367 3.36416 6.72524 3.57538 6.59493L11.9989 1.7962ZM11.9989 12.275L19.7989 7.8L11.9989 3.325L4.1989 7.8L11.9989 12.275ZM11.9989 13.8038L4.1989 9.37303V18.2923C4.1989 18.382 4.22775 18.4558 4.28545 18.5135C4.34315 18.5712 4.41688 18.6 4.50663 18.6H19.4912C19.5809 18.6 19.6547 18.5712 19.7124 18.5135C19.7701 18.4558 19.7989 18.382 19.7989 18.2923V9.37303L11.9989 13.8038Z" fill="#3B3B47"/>
</g>
</svg>
