<svg width="21" height="20" viewBox="0 0 21 20" fill="none" xmlns="http://www.w3.org/2000/svg">
<path d="M4.25 5.25H16.75" stroke="#6C6972" stroke-width="1.5" stroke-linecap="round" stroke-linejoin="round"/>
<path d="M8.25 5.25V3.75C8.25 3.48478 8.35536 3.23043 8.54289 3.04289C8.73043 2.85536 8.98478 2.75 9.25 2.75H11.75C12.0152 2.75 12.2696 2.85536 12.4571 3.04289C12.6446 3.23043 12.75 3.48478 12.75 3.75V5.25" stroke="#6C6972" stroke-width="1.5" stroke-linecap="round" stroke-linejoin="round"/>
<path d="M15 7.75L14.6 15.36C14.5718 15.8711 14.3488 16.352 13.9767 16.7036C13.6046 17.0552 13.1119 17.2508 12.6 17.25H8.4C7.88809 17.2508 7.39536 17.0552 7.0233 16.7036C6.65123 16.352 6.42815 15.8711 6.4 15.36L6 7.75" stroke="#6C6972" stroke-width="1.5" stroke-linecap="round" stroke-linejoin="round"/>
</svg>
